# Blender 3.5.0
# www.blender.org
mtllib rocks2.mtl
o Rock2
v 1.614311 0.218189 -1.980763
v 2.030497 0.879944 -2.022849
v 0.884402 0.000000 -5.604719
v 1.351619 1.131588 -5.121688
v 5.452012 0.000000 -1.085114
v 4.997335 1.131588 -1.514287
v 4.846367 0.218189 -4.175389
v 4.115383 1.242241 -3.636657
v -6.643130 0.000000 -2.034065
v -6.279268 1.211431 -3.379057
v -8.133940 0.000000 -6.257492
v -7.611863 1.340034 -5.812349
v -2.904032 0.000000 -2.034065
v -3.332073 1.340034 -2.356194
v -3.359602 0.059996 -4.903243
v -3.704880 1.389130 -4.704127
v -3.717982 -0.000004 4.738311
v -3.979856 1.122984 4.611071
v -5.964785 -0.000004 7.564633
v -6.157880 1.440118 6.714425
v -7.070233 -0.000004 -0.480152
v -6.940830 1.221653 0.369030
v -8.528065 -0.000004 2.072794
v -8.305889 1.122984 2.213790
v 1.693925 0.138024 5.241885
v 1.943398 1.548566 4.995727
v 1.266858 0.000000 1.540382
v 1.584146 1.432459 1.881999
v 5.408013 0.138024 5.674709
v 5.067712 1.548566 5.359820
v 4.691091 0.113274 2.309842
v 3.968277 1.266648 3.077367
v -4.841294 0.000000 2.337883
v -2.904032 3.593366 2.337883
v -4.841294 0.000000 -0.324955
v -2.673038 3.373208 0.059422
v -0.286114 0.000000 2.337883
v -0.765895 3.674654 2.506783
v -0.286114 0.000000 -0.324955
v -0.286114 4.397991 -0.324955
v -1.760856 0.000002 -4.616148
v -1.697973 1.371654 -4.782891
v -2.370643 0.000002 -5.896777
v -2.201560 1.242241 -5.840487
v -0.428937 0.000002 -5.250357
v -0.814616 1.359877 -5.516745
v -1.038725 0.000002 -6.530986
v -1.101608 1.371654 -6.364243
v 5.594218 -0.000002 -5.057487
v 5.640067 1.242241 -5.268182
v 4.915864 -0.000002 -6.685802
v 5.640066 1.242241 -5.646415
v 6.729848 -0.000002 -5.530589
v 6.547972 1.242241 -5.646415
v 6.051494 -0.000002 -7.158904
v 6.005646 1.242241 -6.948209
v -1.028410 0.000000 6.236597
v -0.869359 1.548566 6.288918
v -0.009359 0.000000 5.583823
v -0.028331 1.548566 5.750181
v -0.226566 0.000000 7.488364
v -0.380715 1.610930 7.311088
v 0.792485 0.000000 6.835590
v 0.560925 1.658603 6.396525
v 1.449418 -0.000002 0.189807
v 1.637599 0.879944 0.032550
v 1.449418 -0.000002 -1.087396
v 1.637599 0.879944 -0.930139
v 2.977778 -0.000002 0.189807
v 2.789597 0.879944 0.032550
v 2.977778 -0.000002 -1.087396
v 2.789597 0.879944 -0.930139
v 4.942087 0.000000 0.432044
v 5.102367 1.131588 0.478806
v 6.313918 0.000000 -0.230732
v 6.250937 1.131588 -0.076104
v 5.539936 0.000000 1.669489
v 5.602918 1.131588 1.514861
v 6.911767 0.000000 1.006713
v 6.751487 1.131588 0.959950
v 1.151672 1.739118 -0.317610
v 1.449419 1.739118 -0.986517
v 2.303670 1.739118 -1.280299
v 2.303670 1.451010 -0.317610
v -7.246425 -0.000004 4.818713
v -7.231884 1.281551 4.464108
v -5.394107 -0.000004 2.129079
v -5.460343 1.172319 2.490050
v -4.893981 3.069769 4.447191
v -5.921353 3.276624 5.946287
v -5.439822 3.091755 3.030077
v -6.662770 3.167161 4.392827
vn -0.9344 0.3135 0.1693
vn 0.3150 0.2596 -0.9129
vn 0.9354 0.3147 -0.1611
vn -0.2037 0.2746 0.9397
vn -0.1000 0.9906 0.0932
vn -0.7896 0.5466 0.2787
vn 0.2644 0.2097 -0.9413
vn 0.9520 0.2691 -0.1455
vn -0.0000 0.2337 0.9723
vn -0.0538 0.9981 0.0294
vn 0.7078 0.4271 0.5627
vn -0.8989 0.1263 0.4196
vn -0.7958 0.4002 -0.4544
vn 0.8338 0.1337 -0.5356
vn -0.8742 0.2789 0.3976
vn -0.9759 0.1910 0.1055
vn 0.1540 0.6125 -0.7754
vn 0.7799 0.6023 -0.1706
vn -0.1136 0.1903 0.9751
vn 0.0151 0.9914 -0.1297
vn -0.8412 0.5407 -0.0000
vn -0.0000 0.1132 -0.9936
vn 0.9916 0.1295 -0.0000
vn -0.0000 -0.0000 1.0000
vn -0.3651 0.9150 0.1718
vn -0.8981 0.1029 0.4276
vn -0.4278 0.0989 -0.8984
vn 0.8898 0.1694 -0.4237
vn 0.4119 0.2863 0.8651
vn -0.0951 0.9944 0.0460
vn -0.9022 0.2115 0.3759
vn -0.3807 0.1410 -0.9139
vn 0.9186 0.0988 -0.3827
vn 0.3807 0.1410 0.9139
vn -0.0000 1.0000 -0.0000
vn -0.5375 0.0836 -0.8391
vn 0.8418 -0.0252 -0.5392
vn 0.5339 0.1428 0.8334
vn -0.8419 -0.0212 0.5393
vn -0.0748 0.9969 -0.0251
vn -0.9779 0.2091 -0.0000
vn -0.0000 0.1759 -0.9844
vn 0.9779 0.2091 -0.0000
vn -0.0000 0.1759 0.9844
vn 0.7616 0.6481 -0.0000
vn -0.4329 0.0983 -0.8961
vn 0.8951 0.1089 -0.4324
vn 0.4329 0.0983 0.8961
vn -0.8951 0.1089 0.4324
vn 0.0981 0.9534 0.2853
vn -0.8910 -0.2212 -0.3966
vn 0.1066 0.4264 0.8982
vn -0.0000 -0.3774 -0.9260
vn -0.0210 0.9991 0.0379
vn 0.8088 0.2755 -0.5196
vn -0.8988 0.1272 0.4195
vn 0.0552 0.9985 -0.0058
vn 0.8264 0.1233 0.5494
vn 0.7801 0.3211 -0.5370
vn -0.7248 0.1938 -0.6612
vn -0.8189 0.5291 0.2224
vn 0.3519 0.6201 -0.7012
vn 0.7144 0.6484 -0.2631
vn -0.1808 0.1752 0.9678
vn -0.0939 0.9904 0.1010
vn -0.8595 0.1754 0.4800
vn -0.2450 0.7524 0.6114
vn -0.0325 0.9970 0.0705
vn 0.6924 0.2386 0.6810
vn -0.8988 0.1251 0.4202
vn -0.7885 0.2277 -0.5713
vn 0.8029 0.2164 -0.5554
vn 0.4516 0.1111 -0.8853
vn 0.8892 0.1157 -0.4426
vn 0.0931 0.9945 -0.0478
vn -0.8723 0.4703 -0.1339
vn -0.1590 -0.0000 -0.9873
vn 0.9859 -0.0000 0.1670
vn -0.0765 -0.0557 0.9955
vn -0.0300 0.9946 -0.0991
vn -0.9034 0.0923 0.4188
vn -0.4367 0.0888 -0.8952
vn 0.9443 0.0820 -0.3186
vn 0.6382 0.0640 0.7672
vn -0.0629 0.9938 -0.0917
vn -0.9993 0.0369 -0.0000
vn -0.7564 0.6187 -0.2124
vn 0.7295 0.0819 -0.6790
vn 0.6623 0.2768 0.6963
vn -0.9013 0.0782 0.4261
vn -0.0683 0.9920 -0.1066
vn 0.8299 0.5345 0.1600
vn 0.2412 0.9645 0.1074
vn -0.8704 -0.4923 -0.0000
vn -0.0000 0.5227 0.8525
vn -0.3224 -0.1321 -0.9374
vn -0.0110 0.9978 -0.0651
vn -0.8987 0.1264 0.4200
vn 0.0577 0.9936 -0.0976
vn 0.6727 0.3698 0.6408
vn 0.9298 0.0904 -0.3567
vt 0.931351 0.101437
vt 0.900990 0.130986
vt 0.777537 0.001378
vt 0.801254 0.068677
vt 0.944112 0.299008
vt 0.888317 0.248179
vt 0.696422 0.211367
vt 0.753665 0.299008
vt 0.781275 0.211103
vt 0.027740 0.790311
vt 0.119648 0.741152
vt 0.264552 0.842618
vt 0.215095 0.765116
vt 0.001378 0.588326
vt 0.067792 0.626173
vt 0.264552 0.576460
vt 0.157671 0.510610
vt 0.183469 0.598945
vt 0.472991 0.792932
vt 0.656219 0.402800
vt 0.517516 0.759647
vt 0.602538 0.388355
vt 0.693666 0.233890
vt 0.613500 0.242885
vt 0.349854 0.522434
vt 0.420860 0.531328
vt 0.519663 0.001378
vt 0.428495 0.405556
vt 0.482604 0.042382
vt 0.474966 0.435475
vt 0.883253 0.640837
vt 0.810370 0.584387
vt 0.883253 0.425879
vt 0.828133 0.495162
vt 0.675408 0.692253
vt 0.727474 0.622838
vt 0.672154 0.405556
vt 0.597406 0.495262
vt 0.693611 0.497460
vt 0.001378 0.339108
vt 0.166082 0.263020
vt 0.083424 0.466149
vt 0.228327 0.329869
vt 0.100680 0.090136
vt 0.210939 0.215293
vt 0.347097 0.507854
vt 0.241547 0.001378
vt 0.347097 0.245733
vt 0.349854 0.883291
vt 0.419621 0.886154
vt 0.403011 0.960689
vt 0.433987 0.909357
vt 0.402753 0.802742
vt 0.441626 0.863388
vt 0.497832 0.968686
vt 0.497832 0.795688
vt 0.482819 0.882108
vt 0.855240 0.758881
vt 0.910198 0.761048
vt 0.916510 0.852444
vt 0.918064 0.770953
vt 0.901120 0.695009
vt 0.923201 0.744578
vt 0.997493 0.848530
vt 0.997493 0.698470
vt 0.985381 0.766325
vt 0.597406 0.783052
vt 0.664896 0.794031
vt 0.618914 0.862423
vt 0.675796 0.814730
vt 0.650541 0.708960
vt 0.677265 0.771665
vt 0.694969 0.917791
vt 0.731458 0.695009
vt 0.731458 0.814484
vt 0.852484 0.819691
vt 0.806960 0.826626
vt 0.837965 0.759325
vt 0.794087 0.774577
vt 0.852484 0.889752
vt 0.814547 0.879039
vt 0.822752 0.939550
vt 0.810741 0.695009
vt 0.776801 0.716739
vt 0.791328 0.912471
vt 0.044117 0.998622
vt 0.079833 0.946300
vt 0.152857 0.851641
vt 0.152857 0.996931
vt 0.130794 0.921917
vt 0.001378 0.911822
vt 0.058431 0.924071
vt 0.064896 0.845374
vt 0.082572 0.896425
vt 0.754096 0.821352
vt 0.734214 0.850851
vt 0.748352 0.787969
vt 0.744293 0.893569
vt 0.740366 0.747235
vt 0.783446 0.868199
vt 0.606664 0.117634
vt 0.594650 0.438543
vt 0.548052 0.142633
vt 0.349854 0.275603
vt 0.411586 0.657609
vt 0.351385 0.402800
vt 0.542620 0.554622
vt 0.469188 0.645487
vt 0.508468 0.345535
vt 0.594650 0.690851
vt 0.522935 0.274907
vt 0.518716 0.258490
vt 0.562626 0.625499
vt 0.444005 0.379312
vt 0.477754 0.205701
vt 0.442948 0.291504
s 0
usemtl Rock2
f 1/1/1 4/4/1 3/3/1
f 4/4/2 7/7/2 3/3/2
f 7/8/3 6/6/3 5/5/3
f 6/6/4 1/1/4 5/5/4
f 8/9/5 2/2/5 6/6/5
f 10/11/6 11/12/6 9/10/6
f 12/13/7 15/16/7 11/12/7
f 15/17/8 14/15/8 13/14/8
f 14/15/9 9/10/9 13/14/9
f 16/18/10 10/11/10 14/15/10
f 17/20/11 20/24/11 19/23/11
f 86/103/12 23/27/12 85/101/12
f 23/28/13 22/26/13 21/25/13
f 87/105/14 18/21/14 17/19/14
f 86/103/15 90/111/15 92/115/15
f 25/31/16 28/34/16 27/33/16
f 27/33/17 32/39/17 31/37/17
f 32/39/18 29/35/18 31/38/18
f 30/36/19 25/31/19 29/35/19
f 32/39/20 26/32/20 30/36/20
f 33/40/21 36/43/21 35/42/21
f 36/43/22 39/46/22 35/42/22
f 39/47/23 38/45/23 37/44/23
f 37/44/24 34/41/24 33/40/24
f 36/43/25 38/45/25 40/48/25
f 41/49/26 44/52/26 43/51/26
f 44/52/27 47/55/27 43/51/27
f 47/56/28 46/54/28 45/53/28
f 46/54/29 41/49/29 45/53/29
f 44/52/30 46/54/30 48/57/30
f 49/58/31 52/61/31 51/60/31
f 51/60/32 56/66/32 55/64/32
f 55/65/33 54/63/33 53/62/33
f 53/62/34 50/59/34 49/58/34
f 52/61/35 54/63/35 56/66/35
f 58/68/36 59/69/36 57/67/36
f 59/69/37 64/75/37 63/73/37
f 63/74/38 62/72/38 61/71/38
f 62/72/39 57/67/39 61/71/39
f 64/75/40 58/68/40 62/72/40
f 66/77/41 67/78/41 65/76/41
f 68/79/42 71/83/42 67/78/42
f 72/85/43 69/80/43 71/82/43
f 70/81/44 65/76/44 69/80/44
f 72/85/45 84/100/45 70/81/45
f 74/87/46 75/89/46 73/86/46
f 76/90/47 79/93/47 75/88/47
f 80/94/48 77/91/48 79/93/48
f 78/92/49 73/86/49 77/91/49
f 80/94/35 74/87/35 78/92/35
f 82/96/50 84/100/50 83/98/50
f 68/79/51 81/95/51 82/97/51
f 66/77/52 84/100/52 81/95/52
f 68/79/53 83/99/53 72/84/53
f 24/30/54 88/107/54 22/26/54
f 22/26/55 87/105/55 21/25/55
f 20/24/56 85/101/56 19/23/56
f 92/116/57 89/109/57 91/114/57
f 20/24/58 89/109/58 90/112/58
f 88/108/59 89/110/59 18/21/59
f 86/104/60 91/114/60 88/106/60
f 1/1/61 2/2/61 4/4/61
f 4/4/62 8/9/62 7/7/62
f 7/8/63 8/9/63 6/6/63
f 6/6/64 2/2/64 1/1/64
f 8/9/65 4/4/65 2/2/65
f 10/11/66 12/13/66 11/12/66
f 12/13/7 16/18/7 15/16/7
f 15/17/8 16/18/8 14/15/8
f 14/15/67 10/11/67 9/10/67
f 16/18/68 12/13/68 10/11/68
f 17/20/69 18/22/69 20/24/69
f 86/103/70 24/29/70 23/27/70
f 23/28/71 24/30/71 22/26/71
f 87/105/72 88/108/72 18/21/72
f 86/103/15 20/24/15 90/111/15
f 25/31/16 26/32/16 28/34/16
f 27/33/73 28/34/73 32/39/73
f 32/39/74 30/36/74 29/35/74
f 30/36/19 26/32/19 25/31/19
f 32/39/75 28/34/75 26/32/75
f 33/40/76 34/41/76 36/43/76
f 36/43/77 40/48/77 39/46/77
f 39/47/78 40/48/78 38/45/78
f 37/44/79 38/45/79 34/41/79
f 36/43/80 34/41/80 38/45/80
f 41/49/81 42/50/81 44/52/81
f 44/52/82 48/57/82 47/55/82
f 47/56/83 48/57/83 46/54/83
f 46/54/84 42/50/84 41/49/84
f 44/52/85 42/50/85 46/54/85
f 49/58/86 50/59/86 52/61/86
f 51/60/87 52/61/87 56/66/87
f 55/65/33 56/66/33 54/63/33
f 53/62/34 54/63/34 50/59/34
f 52/61/35 50/59/35 54/63/35
f 58/68/36 60/70/36 59/69/36
f 59/69/88 60/70/88 64/75/88
f 63/74/89 64/75/89 62/72/89
f 62/72/90 58/68/90 57/67/90
f 64/75/91 60/70/91 58/68/91
f 66/77/41 68/79/41 67/78/41
f 68/79/42 72/84/42 71/83/42
f 72/85/43 70/81/43 69/80/43
f 70/81/44 66/77/44 65/76/44
f 72/85/92 83/98/92 84/100/92
f 74/87/46 76/90/46 75/89/46
f 76/90/47 80/94/47 79/93/47
f 80/94/48 78/92/48 77/91/48
f 78/92/49 74/87/49 73/86/49
f 80/94/35 76/90/35 74/87/35
f 82/96/93 81/95/93 84/100/93
f 68/79/94 66/77/94 81/95/94
f 66/77/95 70/81/95 84/100/95
f 68/79/96 82/97/96 83/99/96
f 24/30/97 86/102/97 88/107/97
f 22/26/72 88/108/72 87/105/72
f 20/24/98 86/103/98 85/101/98
f 92/116/99 90/112/99 89/109/99
f 20/24/100 18/22/100 89/109/100
f 88/108/101 91/113/101 89/110/101
f 86/104/60 92/116/60 91/114/60
